<?xml version="1.0" encoding="UTF-8" standalone="no"?>
<svg
   width="20"
   height="20"
   viewBox="0 0 20 20"
   version="1.1"
   id="svg336"
   sodipodi:docname="record.svg"
   inkscape:version="1.2.1 (9c6d41e410, 2022-07-14)"
   xmlns:inkscape="http://www.inkscape.org/namespaces/inkscape"
   xmlns:sodipodi="http://sodipodi.sourceforge.net/DTD/sodipodi-0.dtd"
   xmlns="http://www.w3.org/2000/svg"
   xmlns:svg="http://www.w3.org/2000/svg">
  <sodipodi:namedview
     id="namedview338"
     pagecolor="#505050"
     bordercolor="#ffffff"
     borderopacity="1"
     inkscape:showpageshadow="0"
     inkscape:pageopacity="0"
     inkscape:pagecheckerboard="1"
     inkscape:deskcolor="#505050"
     showgrid="false"
     inkscape:zoom="9.9878833"
     inkscape:cx="9.1611002"
     inkscape:cy="8.3601297"
     inkscape:window-width="877"
     inkscape:window-height="736"
     inkscape:window-x="480"
     inkscape:window-y="0"
     inkscape:window-maximized="0"
     inkscape:current-layer="svg336" />
  <!-- Generator: Sketch 3.8.1 (29687) - http://www.bohemiancoding.com/sketch -->
  <title
     id="title326">record [#982]</title>
  <desc
     id="desc328">Created with Sketch.</desc>
  <defs
     id="defs330" />
  <g
     id="Page-1"
     stroke="none"
     stroke-width="1"
     fill="none"
     fill-rule="evenodd"
     style="fill:#ffffff">
    <g
       id="Dribbble-Light-Preview"
       transform="translate(-380,-3839)"
       fill="#000000"
       style="fill:#ffffff">
      <g
         id="icons"
         transform="translate(56,160)"
         style="fill:#ffffff">
        <path
           d="m 338,3689 c 0,2.209 -1.791,4 -4,4 -2.209,0 -4,-1.791 -4,-4 0,-2.209 1.791,-4 4,-4 2.209,0 4,1.791 4,4 m -4,8 c -4.411,0 -8,-3.589 -8,-8 0,-4.411 3.589,-8 8,-8 4.411,0 8,3.589 8,8 0,4.411 -3.589,8 -8,8 m 0,-18 c -5.523,0 -10,4.477 -10,10 0,5.523 4.477,10 10,10 5.523,0 10,-4.477 10,-10 0,-5.523 -4.477,-10 -10,-10"
           id="record-[#982]"
           style="fill:#ffffff" />
      </g>
    </g>
  </g>
</svg>
