<?xml version="1.0" encoding="UTF-8" standalone="no"?>
<!-- Generator: Adobe Illustrator 19.2.1, SVG Export Plug-In . SVG Version: 6.00 Build 0)  -->

<svg
   version="1.1"
   id="Layer_1"
   x="0px"
   y="0px"
   width="24"
   height="24"
   viewBox="0 0 24 24"
   enable-background="new 0 0 92 92"
   xml:space="preserve"
   sodipodi:docname="SkipInto.svg"
   inkscape:export-filename="SkipInto.svg"
   inkscape:export-xdpi="47.618217"
   inkscape:export-ydpi="47.618217"
   xmlns:inkscape="http://www.inkscape.org/namespaces/inkscape"
   xmlns:sodipodi="http://sodipodi.sourceforge.net/DTD/sodipodi-0.dtd"
   xmlns="http://www.w3.org/2000/svg"
   xmlns:svg="http://www.w3.org/2000/svg"><defs
   id="defs374" /><sodipodi:namedview
   id="namedview372"
   pagecolor="#505050"
   bordercolor="#ffffff"
   borderopacity="1"
   inkscape:showpageshadow="0"
   inkscape:pageopacity="0"
   inkscape:pagecheckerboard="1"
   inkscape:deskcolor="#505050"
   showgrid="false" />
<path
   id="XMLID_1543_"
   d="M 23.167215,15.622633 17.99213,21.565939 C 17.730467,21.866442 17.410661,22 17.061776,22 c -0.319809,0 -0.668692,-0.133558 -0.930353,-0.434061 -0.494249,-0.56762 -0.523323,-1.53591 0,-2.10353 l 2.9655,-3.405714 H 2.55409 c -0.348881,0 -0.726838,-0.166947 -0.959425,-0.434062 C 1.333001,15.355519 1.100414,14.954847 1.100414,14.587563 V 6.97479 c 0,-0.834734 0.58147,-1.502522 1.308309,-1.502522 0.726837,0 1.308308,0.667788 1.308308,1.502522 v 6.110252 H 19.009702 L 16.131423,9.679328 c -0.494249,-0.567619 -0.494249,-1.53591 0,-2.103528 0.494251,-0.56762 1.337382,-0.56762 1.831634,0 l 5.175086,5.943303 c 0.552396,0.60101 0.552396,1.535911 0.02908,2.10353 z M 2.612238,4.303642 c 0.377955,0 0.75591,-0.166947 1.017573,-0.46745 C 3.89147,3.535686 4.065912,3.101624 4.065912,2.667563 4.065912,2.233502 3.920543,1.79944 3.629811,1.498935 3.368148,1.198433 2.990193,1.031485 2.612238,1.031485 c -0.377957,0 -0.755913,0.166948 -1.017573,0.46745 -0.261664,0.300505 -0.436103,0.734567 -0.436103,1.168628 0,0.434061 0.145369,0.868123 0.436103,1.168629 0.26166,0.267113 0.639616,0.46745 1.017573,0.46745 z"
   style="fill:#ffffff;stroke-width:0.311569" />
</svg>
